<?xml version="1.0" encoding="utf-8"?>
<svg version="1.1" xmlns:xlink="http://www.w3.org/1999/xlink" width="50px" height="42px" xmlns="http://www.w3.org/2000/svg">
  <g transform="matrix(1 0 0 1 -609 -376 )">
    <path d="M 18.088942307692307 35.49715909090909  C 18.85016025641026 36.25284090909091  19.230769230769234 37.14772727272727  19.230769230769234 38.18181818181818  C 19.230769230769234 39.21590909090909  18.85016025641026 40.11079545454545  18.088942307692307 40.86647727272727  C 17.32772435897436 41.622159090909086  16.426282051282055 42  15.384615384615385 42  C 14.342948717948719 42  13.441506410256412 41.622159090909086  12.680288461538462 40.86647727272727  C 11.919070512820513 40.11079545454545  11.538461538461538 39.21590909090909  11.538461538461538 38.18181818181818  C 11.538461538461538 37.14772727272727  11.919070512820513 36.25284090909091  12.680288461538462 35.49715909090909  C 13.441506410256412 34.74147727272727  14.342948717948719 34.36363636363636  15.384615384615385 34.36363636363636  C 16.426282051282055 34.36363636363636  17.32772435897436 34.74147727272727  18.088942307692307 35.49715909090909  Z M 45.012019230769226 35.49715909090909  C 45.773237179487175 36.25284090909091  46.15384615384615 37.14772727272727  46.15384615384615 38.18181818181818  C 46.15384615384615 39.21590909090909  45.773237179487175 40.11079545454545  45.012019230769226 40.86647727272727  C 44.250801282051285 41.622159090909086  43.34935897435898 42  42.30769230769231 42  C 41.26602564102564 42  40.364583333333336 41.622159090909086  39.60336538461539 40.86647727272727  C 38.84214743589744 40.11079545454545  38.46153846153847 39.21590909090909  38.46153846153847 38.18181818181818  C 38.46153846153847 37.14772727272727  38.84214743589744 36.25284090909091  39.60336538461539 35.49715909090909  C 40.364583333333336 34.74147727272727  41.26602564102564 34.36363636363636  42.30769230769231 34.36363636363636  C 43.34935897435898 34.36363636363636  44.250801282051285 34.74147727272727  45.012019230769226 35.49715909090909  Z M 49.42908653846153 4.384943181818181  C 49.80969551282052 4.762784090909086  50 5.210227272727267  50 5.727272727272727  L 50 21  C 50 21.477272727272727  49.83473557692308 21.899857954545457  49.504206730769226 22.267755681818187  C 49.17367788461539 22.635653409090903  48.76802884615385 22.849431818181813  48.28725961538461 22.909090909090907  L 16.917067307692307 26.548295454545453  C 17.177483974358974 27.741477272727273  17.307692307692307 28.437499999999996  17.307692307692307 28.63636363636364  C 17.307692307692307 28.954545454545446  17.067307692307693 29.590909090909093  16.58653846153846 30  L 44.230769230769226 30  C 44.75160256410257 30.545454545454547  45.20232371794872 30.734374999999996  45.58293269230769 31.112215909090907  C 45.963541666666664 31.490056818181817  46.15384615384615 31.937500000000004  46.15384615384615 32.45454545454545  C 46.15384615384615 32.97159090909091  45.963541666666664 33.419034090909086  45.58293269230769 33.796875  C 45.20232371794872 34.174715909090914  44.75160256410257 34.36363636363636  44.230769230769226 34  L 13.461538461538462 34  C 12.94070512820513 34.36363636363636  12.489983974358974 34.174715909090914  12.109375 33.796875  C 11.728766025641026 33.419034090909086  11.538461538461538 32.97159090909091  11.538461538461538 32.45454545454545  C 11.538461538461538 32.23579545454545  11.618589743589743 31.92258522727273  11.778846153846153 31.514914772727273  C 11.939102564102564 31.107244318181817  12.099358974358974 30.74928977272727  12.259615384615383 30.44105113636364  C 12.419871794871797 30.132812499999993  12.635216346153847 29.735085227272727  12.905649038461538 29.247869318181813  C 13.176081730769232 28.7606534090909  13.33133012820513 28.467329545454543  13.371394230769232 28.367897727272727  L 8.052884615384617 3.8181818181818192  L 1.9230769230769231 3.8181818181818192  C 1.4022435897435899 3.8181818181818192  0.951522435897436 3.6292613636363598  0.5709134615384615 3.2514204545454537  C 0.19030448717948717 2.873579545454543  0 2.4261363636363624  0 1.9090909090909074  C 0 1.3920454545454521  0.19030448717948717 0.9446022727272669  0.5709134615384615 0.5667613636363658  C 0.951522435897436 0.1889204545454506  1.4022435897435899 0  1.9230769230769231 0  L 9.615384615384617 0  C 9.935897435897436 0  10.221354166666668 0.06463068181817899  10.471754807692307 0.1938920454545463  C 10.72215544871795 0.32315340909090895  10.91746794871795 0.47727272727272685  11.057692307692307 0.65625  C 11.197916666666668 0.8352272727272732  11.328125 1.0788352272727206  11.448317307692307 1.3870738636363658  C 11.568509615384617 1.695312499999997  11.648637820512823 1.9538352272727268  11.688701923076923 2.1626420454545463  C 11.728766025641027 2.371448863636366  11.783854166666668 2.664772727272724  11.853966346153847 3.042613636363634  C 11.924078525641027 3.42045454545454  11.969150641025642 3.67897727272727  11.989182692307693 4  L 48.07692307692308 4  C 48.597756410256416 3.8181818181818192  49.04847756410257 4.00710227272727  49.42908653846153 4.384943181818181  Z " fill-rule="nonzero" fill="#000000" stroke="none" transform="matrix(1 0 0 1 609 376 )" />
  </g>
</svg>