<?xml version="1.0" encoding="utf-8"?>
<svg version="1.1" xmlns:xlink="http://www.w3.org/1999/xlink" width="50px" height="43px" xmlns="http://www.w3.org/2000/svg">
  <g transform="matrix(1 0 0 1 -416 -503 )">
    <path d="M 39.034598214285715 25.33528645833333  C 39.20200892857143 25.50325520833333  39.285714285714285 25.71788194444444  39.285714285714285 25.97916666666667  L 39.285714285714285 34.9375  C 39.285714285714285 37.158420138888886  38.49981398809524 39.057400173611114  36.928013392857146 40.634440104166664  C 35.35621279761905 42.21148003472222  33.46354166666667 43  31.25 43  L 8.035714285714286 43  C 5.8221726190476195 43  3.929501488095238 42.21148003472222  2.357700892857143 40.634440104166664  C 0.7859002976190476 39.057400173611114  0 37.158420138888886  0 34.9375  L 0 11.645833333333336  C 0 9.42491319444444  0.7859002976190476 7.52593315972222  2.357700892857143 5.948893229166665  C 3.929501488095238 4.371853298611105  5.8221726190476195 3.583333333333335  8.035714285714286 4  L 27.67857142857143 4  C 27.9389880952381 3.583333333333335  28.152901785714285 3.667317708333335  28.3203125 3.835286458333335  C 28.487723214285715 4.003255208333335  28.57142857142857 4.21788194444444  28.57142857142857 4.479166666666665  L 28.57142857142857 6.270833333333335  C 28.57142857142857 6.532118055555555  28.487723214285715 6.746744791666665  28.3203125 6.914713541666665  C 28.152901785714285 7.082682291666665  27.9389880952381 7.166666666666665  27.67857142857143 8  L 8.035714285714286 8  C 6.808035714285715 7.166666666666665  5.757068452380953 7.605251736111105  4.8828125 8.482421875  C 4.008556547619048 9.359592013888886  3.571428571428571 10.4140625  4 11.645833333333336  L 4 34.9375  C 3.571428571428571 36.169270833333336  4.008556547619048 37.22374131944444  4.8828125 38.100911458333336  C 5.757068452380953 38.97808159722222  6.808035714285715 39.416666666666664  8.035714285714286 39  L 31.25 39  C 32.47767857142857 39.416666666666664  33.528645833333336 38.97808159722222  34.402901785714285 38.100911458333336  C 35.27715773809524 37.22374131944444  35.714285714285715 36.169270833333336  35.714285714285715 34.9375  L 35.714285714285715 25.97916666666667  C 35.714285714285715 25.71788194444444  35.79799107142857 25.50325520833333  35.965401785714285 25.33528645833333  C 36.1328125 25.16731770833333  36.34672619047619 25.08333333333333  36.607142857142854 25.08333333333333  L 38.392857142857146 25.08333333333333  C 38.65327380952381 25.08333333333333  38.8671875 25.16731770833333  39.034598214285715 25.33528645833333  Z M 49.46986607142857 0.5319010416666651  C 49.82328869047619 0.8865017361111053  50 1.3064236111111054  50 1.7916666666666652  L 50 16.125  C 50 16.610243055555554  49.82328869047619 17.030164930555554  49.46986607142857 17.384765625  C 49.116443452380956 17.739366319444446  48.69791666666667 17.916666666666664  48.214285714285715 17.916666666666664  C 47.73065476190476 17.916666666666664  47.312127976190474 17.739366319444446  46.958705357142854 17.384765625  L 42.04799107142857 12.457682291666664  L 23.856026785714285 30.71028645833333  C 23.67001488095238 30.89691840277777  23.456101190476193 30.990234375  23.214285714285715 30.990234375  C 22.97247023809524 30.990234375  22.75855654761905 30.89691840277777  22.572544642857142 30.71028645833333  L 19.391741071428573 27.51888020833333  C 19.205729166666668 27.33224826388889  19.112723214285715 27.11762152777778  19.112723214285715 26.875  C 19.112723214285715 26.63237847222222  19.205729166666668 26.41775173611111  19.391741071428573 26.23111979166667  L 37.583705357142854 7.978515625  L 32.67299107142857 3.051432291666665  C 32.319568452380956 2.69683159722222  32.142857142857146 2.27690972222222  32.142857142857146 1.7916666666666652  C 32.142857142857146 1.3064236111111054  32.319568452380956 0.8865017361111053  32.67299107142857 0.5319010416666651  C 33.02641369047619 0.17730034722222487  33.444940476190474 0  33.92857142857143 0  L 48.214285714285715 0  C 48.69791666666667 0  49.116443452380956 0.17730034722222487  49.46986607142857 0.5319010416666651  Z " fill-rule="nonzero" fill="#000000" stroke="none" transform="matrix(1 0 0 1 416 503 )" />
  </g>
</svg>