<?xml version="1.0" encoding="utf-8"?>
<svg version="1.1" xmlns:xlink="http://www.w3.org/1999/xlink" width="13px" height="13px" viewBox="39 307  13 13" xmlns="http://www.w3.org/2000/svg">
  <path d="M 45.5 307  C 49.14 307  52 309.86  52 313.5  C 52 317.14  49.14 320  45.5 320  C 41.86 320  39 317.14  39 313.5  C 39 309.86  41.86 307  45.5 307  Z " fill-rule="nonzero" fill="#f0f0f0" stroke="none" />
  <path d="M 45.5 307.5  C 48.86 307.5  51.5 310.14  51.5 313.5  C 51.5 316.86  48.86 319.5  45.5 319.5  C 42.14 319.5  39.5 316.86  39.5 313.5  C 39.5 310.14  42.14 307.5  45.5 307.5  Z " stroke-width="1" stroke="#797979" fill="none" />
  <path d="M 45.5 316.75  C 43.68 316.75  42.25 315.32  42.25 313.5  C 42.25 311.68  43.68 310.25  45.5 310.25  C 47.32 310.25  48.75 311.68  48.75 313.5  C 48.75 315.32  47.32 316.75  45.5 316.75  " fill-rule="nonzero" fill="#797979" stroke="none" />
</svg>