<?xml version="1.0" encoding="utf-8"?>
<svg version="1.1" xmlns:xlink="http://www.w3.org/1999/xlink" width="13px" height="13px" viewBox="39 369  13 13" xmlns="http://www.w3.org/2000/svg">
  <path d="M 45.5 369  C 49.14 369  52 371.86  52 375.5  C 52 379.14  49.14 382  45.5 382  C 41.86 382  39 379.14  39 375.5  C 39 371.86  41.86 369  45.5 369  Z " fill-rule="nonzero" fill="#f0f0f0" stroke="none" />
  <path d="M 45.5 369.5  C 48.86 369.5  51.5 372.14  51.5 375.5  C 51.5 378.86  48.86 381.5  45.5 381.5  C 42.14 381.5  39.5 378.86  39.5 375.5  C 39.5 372.14  42.14 369.5  45.5 369.5  Z " stroke-width="1" stroke="#797979" fill="none" />
  <path d="M 45.5 378.75  C 43.68 378.75  42.25 377.32  42.25 375.5  C 42.25 373.68  43.68 372.25  45.5 372.25  C 47.32 372.25  48.75 373.68  48.75 375.5  C 48.75 377.32  47.32 378.75  45.5 378.75  " fill-rule="nonzero" fill="#797979" stroke="none" />
</svg>