<?xml version="1.0" encoding="utf-8"?>
<svg version="1.1" xmlns:xlink="http://www.w3.org/1999/xlink" width="13px" height="13px" viewBox="39 462  13 13" xmlns="http://www.w3.org/2000/svg">
  <path d="M 45.5 462  C 49.14 462  52 464.86  52 468.5  C 52 472.14  49.14 475  45.5 475  C 41.86 475  39 472.14  39 468.5  C 39 464.86  41.86 462  45.5 462  Z " fill-rule="nonzero" fill="#f0f0f0" stroke="none" />
  <path d="M 45.5 462.5  C 48.86 462.5  51.5 465.14  51.5 468.5  C 51.5 471.86  48.86 474.5  45.5 474.5  C 42.14 474.5  39.5 471.86  39.5 468.5  C 39.5 465.14  42.14 462.5  45.5 462.5  Z " stroke-width="1" stroke="#797979" fill="none" />
  <path d="M 45.5 471.75  C 43.68 471.75  42.25 470.32  42.25 468.5  C 42.25 466.68  43.68 465.25  45.5 465.25  C 47.32 465.25  48.75 466.68  48.75 468.5  C 48.75 470.32  47.32 471.75  45.5 471.75  " fill-rule="nonzero" fill="#797979" stroke="none" />
</svg>