<?xml version="1.0" encoding="utf-8"?>
<svg version="1.1" xmlns:xlink="http://www.w3.org/1999/xlink" width="13px" height="13px" viewBox="39 523  13 13" xmlns="http://www.w3.org/2000/svg">
  <path d="M 45.5 523  C 49.14 523  52 525.86  52 529.5  C 52 533.14  49.14 536  45.5 536  C 41.86 536  39 533.14  39 529.5  C 39 525.86  41.86 523  45.5 523  Z " fill-rule="nonzero" fill="#f0f0f0" stroke="none" />
  <path d="M 45.5 523.5  C 48.86 523.5  51.5 526.14  51.5 529.5  C 51.5 532.86  48.86 535.5  45.5 535.5  C 42.14 535.5  39.5 532.86  39.5 529.5  C 39.5 526.14  42.14 523.5  45.5 523.5  Z " stroke-width="1" stroke="#797979" fill="none" />
  <path d="M 45.5 532.75  C 43.68 532.75  42.25 531.32  42.25 529.5  C 42.25 527.68  43.68 526.25  45.5 526.25  C 47.32 526.25  48.75 527.68  48.75 529.5  C 48.75 531.32  47.32 532.75  45.5 532.75  " fill-rule="nonzero" fill="#797979" stroke="none" />
</svg>