<?xml version="1.0" encoding="utf-8"?>
<svg version="1.1" xmlns:xlink="http://www.w3.org/1999/xlink" width="42px" height="38px" xmlns="http://www.w3.org/2000/svg">
  <g transform="matrix(1 0 0 1 -19 -103 )">
    <path d="M 41.072690217391305 15.231707317073171  C 41.69089673913043 15.841463414634148  42 16.57723577235772  42 17.4390243902439  L 42 20.5609756097561  C 42 21.422764227642276  41.69089673913043 22.15853658536585  41.072690217391305 22.76829268292683  C 40.45448369565218 23.378048780487806  39.650815217391305 23.682926829268297  38.661684782608695 23  L 18.574728260869566 23  L 26.93478260869565 30.853658536585364  C 27.65760869565218 31.4390243902439  28.019021739130437 32.170731707317074  28.019021739130437 33.048780487804876  C 28.019021739130437 33.926829268292686  27.65760869565218 34.65853658536585  26.93478260869565 35.24390243902439  L 24.79483695652174 37.09756097560975  C 24.091032608695652 37.69918699186992  23.235054347826086 38  22.226902173913043 38  C 21.237771739130434 38  20.372282608695652 37.69918699186992  19.630434782608695 37.09756097560975  L 1.0557065217391304 21.195121951219512  C 0.35190217391304374 20.59349593495935  0 19.861788617886177  0 19  C 0 18.15447154471545  0.35190217391304374 17.414634146341463  1.0557065217391304 16.78048780487805  L 19.630434782608695 0.9268292682926838  C 20.35326086956522 0.30894308943089177  21.21875 0  22.226902173913043 0  C 23.216032608695652 0  24.07201086956522 0.30894308943089177  24.79483695652174 0.9268292682926838  L 26.93478260869565 2.7317073170731705  C 27.65760869565218 3.349593495934958  28.019021739130437 4.089430894308938  28.019021739130437 4.951219512195122  C 28.019021739130437 5.813008130081298  27.65760869565218 6.552845528455282  26.93478260869565 7.170731707317073  L 18.574728260869566 15  L 38.661684782608695 15  C 39.650815217391305 14.317073170731708  40.45448369565218 14.621951219512194  41.072690217391305 15.231707317073171  Z " fill-rule="nonzero" fill="#000000" stroke="none" transform="matrix(1 0 0 1 19 103 )" />
  </g>
</svg>