<?xml version="1.0" encoding="utf-8"?>
<svg version="1.1" xmlns:xlink="http://www.w3.org/1999/xlink" width="50px" height="43px" xmlns="http://www.w3.org/2000/svg">
  <g transform="matrix(1 0 0 1 -340 -503 )">
    <path d="M 41.183035714285715 23.06770833333333  C 44.680059523809526 19.559027777777775  46.42857142857143 16.236979166666664  46.42857142857143 13.1015625  C 46.42857142857143 11.58984375  46.22860863095239 10.25542534722222  45.828683035714285 9.098307291666664  C 45.42875744047619 7.941189236111105  44.917224702380956 7.02202690972222  44.29408482142857 6.3408203125  C 43.6709449404762 5.659613715277775  42.91294642857144 5.104383680555555  42.020089285714285 4.675130208333335  C 41.127232142857146 4.245876736111105  40.25297619047619 3.95659722222222  39.39732142857143 3.807291666666665  C 38.54166666666667 3.6579861111111054  37.630208333333336 3.583333333333335  36.66294642857143 3.583333333333335  C 35.695684523809526 3.583333333333335  34.654017857142854 3.8212890625  33.53794642857143 4.297200520833335  C 32.421875 4.773111979166665  31.394159226190478 5.370334201388885  30.454799107142854 6.0888671875  C 29.515438988095244 6.807400173611105  28.7109375 7.479275173611105  28.041294642857146 8.1044921875  C 27.371651785714292 8.729709201388886  26.813616071428577 9.303602430555555  26.3671875 9.826171875  C 26.032366071428577 10.236762152777775  25.576636904761905 10.442057291666664  25 10.442057291666664  C 24.423363095238095 10.442057291666664  23.967633928571427 10.236762152777775  23.6328125 9.826171875  C 23.186383928571427 9.303602430555555  22.628348214285715 8.729709201388886  21.958705357142858 8.1044921875  C 21.2890625 7.479275173611105  20.484561011904763 6.807400173611105  19.545200892857142 6.0888671875  C 18.605840773809526 5.370334201388885  17.578125 4.773111979166665  16.462053571428573 4.297200520833335  C 15.345982142857142 3.8212890625  14.30431547619048 3.583333333333335  13.337053571428573 3.583333333333335  C 12.369791666666668 3.583333333333335  11.458333333333336 3.6579861111111054  10.602678571428571 3.807291666666665  C 9.74702380952381 3.95659722222222  8.872767857142858 4.245876736111105  7.9799107142857135 4.675130208333335  C 7.087053571428571 5.104383680555555  6.329055059523809 5.659613715277775  5.705915178571429 6.3408203125  C 5.082775297619048 7.02202690972222  4.571242559523809 7.941189236111105  4.171316964285714 9.098307291666664  C 3.77139136904762 10.25542534722222  3.571428571428571 11.58984375  3.571428571428571 13.1015625  C 3.571428571428571 16.236979166666664  5.310639880952381 19.549696180555554  8.7890625 23.03971354166667  L 25 38.716796875  L 41.183035714285715 23.06770833333333  Z M 46.456473214285715 3.471354166666665  C 48.818824404761905 5.785590277777775  50 8.99565972222222  50 13.1015625  C 50 17.22612847222222  47.87016369047619 21.42534722222222  43.61049107142857 25.69921875  L 26.22767857142857 42.49609375  C 25.892857142857146 42.83203125  25.483630952380953 43  25 43  C 24.51636904761905 43  24.10714285714286 42.83203125  23.772321428571427 42.49609375  L 6.361607142857142 25.64322916666667  C 6.175595238095238 25.49392361111111  5.9198288690476195 25.25130208333333  5.594308035714286 24.91536458333333  C 5.2687872023809526 24.57942708333333  4.752604166666667 23.96820746527778  4.045758928571429 23.08170572916667  C 3.3389136904761902 22.19520399305555  2.7064732142857144 21.285373263888886  2.1484375 20.352213541666664  C 1.5904017857142856 19.419053819444446  1.0928199404761907 18.289930555555554  0.6556919642857143 16.96484375  C 0.2185639880952381 15.63975694444444  0 14.351996527777775  0 13.1015625  C 0 8.99565972222222  1.1811755952380951 5.785590277777775  3.5435267857142856 3.471354166666665  C 5.905877976190476 1.157118055555555  9.170386904761903 0  13.337053571428573 0  C 14.490327380952381 0  15.666852678571427 0.20062934027777513  16.866629464285715 0.6018880208333349  C 18.06640625 1.0031467013888853  19.182477678571427 1.544379340277775  20.21484375 2.2255859375  C 21.247209821428577 2.90679253472222  22.13541666666667 3.54600694444444  22.879464285714285 4.143229166666665  C 23.623511904761905 4.740451388888885  24.330357142857142 5.375  25 6.046875  C 25.669642857142854 5.375  26.3764880952381 4.740451388888885  27.120535714285715 4.143229166666665  C 27.864583333333336 3.54600694444444  28.75279017857143 2.90679253472222  29.78515625 2.2255859375  C 30.81752232142857 1.544379340277775  31.93359375 1.0031467013888853  33.133370535714285 0.6018880208333349  C 34.33314732142857 0.20062934027777513  35.50967261904762 0  36.66294642857143 0  C 40.8296130952381 0  44.094122023809526 1.157118055555555  46.456473214285715 3.471354166666665  Z " fill-rule="nonzero" fill="#000000" stroke="none" transform="matrix(1 0 0 1 340 503 )" />
  </g>
</svg>