<?xml version="1.0" encoding="utf-8"?>
<svg version="1.1" xmlns:xlink="http://www.w3.org/1999/xlink" width="13px" height="13px" viewBox="722 370  13 13" xmlns="http://www.w3.org/2000/svg">
  <path d="M 728.5 370  C 732.14 370  735 372.86  735 376.5  C 735 380.14  732.14 383  728.5 383  C 724.86 383  722 380.14  722 376.5  C 722 372.86  724.86 370  728.5 370  Z " fill-rule="nonzero" fill="#ffffff" stroke="none" />
  <path d="M 728.5 370.5  C 731.86 370.5  734.5 373.14  734.5 376.5  C 734.5 379.86  731.86 382.5  728.5 382.5  C 725.14 382.5  722.5 379.86  722.5 376.5  C 722.5 373.14  725.14 370.5  728.5 370.5  Z " stroke-width="1" stroke="#797979" fill="none" />
  <path d="M 728.5 379.75  C 726.68 379.75  725.25 378.32  725.25 376.5  C 725.25 374.68  726.68 373.25  728.5 373.25  C 730.32 373.25  731.75 374.68  731.75 376.5  C 731.75 378.32  730.32 379.75  728.5 379.75  " fill-rule="nonzero" fill="#797979" stroke="none" />
</svg>