<?xml version="1.0" encoding="utf-8"?>
<svg version="1.1" xmlns:xlink="http://www.w3.org/1999/xlink" width="13px" height="13px" viewBox="722 402  13 13" xmlns="http://www.w3.org/2000/svg">
  <path d="M 728.5 402  C 732.14 402  735 404.86  735 408.5  C 735 412.14  732.14 415  728.5 415  C 724.86 415  722 412.14  722 408.5  C 722 404.86  724.86 402  728.5 402  Z " fill-rule="nonzero" fill="#f0f0f0" stroke="none" />
  <path d="M 728.5 402.5  C 731.86 402.5  734.5 405.14  734.5 408.5  C 734.5 411.86  731.86 414.5  728.5 414.5  C 725.14 414.5  722.5 411.86  722.5 408.5  C 722.5 405.14  725.14 402.5  728.5 402.5  Z " stroke-width="1" stroke="#797979" fill="none" />
  <path d="M 728.5 411.75  C 726.68 411.75  725.25 410.32  725.25 408.5  C 725.25 406.68  726.68 405.25  728.5 405.25  C 730.32 405.25  731.75 406.68  731.75 408.5  C 731.75 410.32  730.32 411.75  728.5 411.75  " fill-rule="nonzero" fill="#797979" stroke="none" />
</svg>