<?xml version="1.0" encoding="utf-8"?>
<svg version="1.1" xmlns:xlink="http://www.w3.org/1999/xlink" width="13px" height="13px" viewBox="846 402  13 13" xmlns="http://www.w3.org/2000/svg">
  <path d="M 852.5 402  C 856.14 402  859 404.86  859 408.5  C 859 412.14  856.14 415  852.5 415  C 848.86 415  846 412.14  846 408.5  C 846 404.86  848.86 402  852.5 402  Z " fill-rule="nonzero" fill="#f0f0f0" stroke="none" />
  <path d="M 852.5 402.5  C 855.86 402.5  858.5 405.14  858.5 408.5  C 858.5 411.86  855.86 414.5  852.5 414.5  C 849.14 414.5  846.5 411.86  846.5 408.5  C 846.5 405.14  849.14 402.5  852.5 402.5  Z " stroke-width="1" stroke="#797979" fill="none" />
  <path d="M 852.5 411.75  C 850.68 411.75  849.25 410.32  849.25 408.5  C 849.25 406.68  850.68 405.25  852.5 405.25  C 854.32 405.25  855.75 406.68  855.75 408.5  C 855.75 410.32  854.32 411.75  852.5 411.75  " fill-rule="nonzero" fill="#797979" stroke="none" />
</svg>