<?xml version="1.0" encoding="utf-8"?>
<svg version="1.1" xmlns:xlink="http://www.w3.org/1999/xlink" width="13px" height="13px" viewBox="846 337  13 13" xmlns="http://www.w3.org/2000/svg">
  <path d="M 852.5 337  C 856.14 337  859 339.86  859 343.5  C 859 347.14  856.14 350  852.5 350  C 848.86 350  846 347.14  846 343.5  C 846 339.86  848.86 337  852.5 337  Z " fill-rule="nonzero" fill="#f0f0f0" stroke="none" />
  <path d="M 852.5 337.5  C 855.86 337.5  858.5 340.14  858.5 343.5  C 858.5 346.86  855.86 349.5  852.5 349.5  C 849.14 349.5  846.5 346.86  846.5 343.5  C 846.5 340.14  849.14 337.5  852.5 337.5  Z " stroke-width="1" stroke="#797979" fill="none" />
  <path d="M 852.5 346.75  C 850.68 346.75  849.25 345.32  849.25 343.5  C 849.25 341.68  850.68 340.25  852.5 340.25  C 854.32 340.25  855.75 341.68  855.75 343.5  C 855.75 345.32  854.32 346.75  852.5 346.75  " fill-rule="nonzero" fill="#797979" stroke="none" />
</svg>