<?xml version="1.0" encoding="utf-8"?>
<svg version="1.1" xmlns:xlink="http://www.w3.org/1999/xlink" width="13px" height="13px" viewBox="846 370  13 13" xmlns="http://www.w3.org/2000/svg">
  <path d="M 852.5 370  C 856.14 370  859 372.86  859 376.5  C 859 380.14  856.14 383  852.5 383  C 848.86 383  846 380.14  846 376.5  C 846 372.86  848.86 370  852.5 370  Z " fill-rule="nonzero" fill="#ffffff" stroke="none" />
  <path d="M 852.5 370.5  C 855.86 370.5  858.5 373.14  858.5 376.5  C 858.5 379.86  855.86 382.5  852.5 382.5  C 849.14 382.5  846.5 379.86  846.5 376.5  C 846.5 373.14  849.14 370.5  852.5 370.5  Z " stroke-width="1" stroke="#797979" fill="none" />
  <path d="M 852.5 379.75  C 850.68 379.75  849.25 378.32  849.25 376.5  C 849.25 374.68  850.68 373.25  852.5 373.25  C 854.32 373.25  855.75 374.68  855.75 376.5  C 855.75 378.32  854.32 379.75  852.5 379.75  " fill-rule="nonzero" fill="#797979" stroke="none" />
</svg>