<?xml version="1.0" encoding="utf-8"?>
<svg version="1.1" xmlns:xlink="http://www.w3.org/1999/xlink" width="13px" height="13px" viewBox="722 436  13 13" xmlns="http://www.w3.org/2000/svg">
  <path d="M 728.5 436  C 732.14 436  735 438.86  735 442.5  C 735 446.14  732.14 449  728.5 449  C 724.86 449  722 446.14  722 442.5  C 722 438.86  724.86 436  728.5 436  Z " fill-rule="nonzero" fill="#ffffff" stroke="none" />
  <path d="M 728.5 436.5  C 731.86 436.5  734.5 439.14  734.5 442.5  C 734.5 445.86  731.86 448.5  728.5 448.5  C 725.14 448.5  722.5 445.86  722.5 442.5  C 722.5 439.14  725.14 436.5  728.5 436.5  Z " stroke-width="1" stroke="#797979" fill="none" />
  <path d="M 728.5 445.75  C 726.68 445.75  725.25 444.32  725.25 442.5  C 725.25 440.68  726.68 439.25  728.5 439.25  C 730.32 439.25  731.75 440.68  731.75 442.5  C 731.75 444.32  730.32 445.75  728.5 445.75  " fill-rule="nonzero" fill="#797979" stroke="none" />
</svg>