<?xml version="1.0" encoding="utf-8"?>
<svg version="1.1" xmlns:xlink="http://www.w3.org/1999/xlink" width="50px" height="38px" xmlns="http://www.w3.org/2000/svg">
  <g transform="matrix(1 0 0 1 -1388 -14 )">
    <path d="M 23.81591796875 16.216796875  C 21.98486328125 18.072265625  19.775390625 19  17.1875 19  C 14.599609375 19  12.39013671875 18.072265625  10.55908203125 16.216796875  C 8.72802734375 14.361328125  7.8125 12.122395833333332  7.8125 9.5  C 7.8125 6.877604166666668  8.72802734375 4.638671875  10.55908203125 2.783203125  C 12.39013671875 0.927734375  14.599609375 0  17.1875 0  C 19.775390625 0  21.98486328125 0.927734375  23.81591796875 2.783203125  C 25.64697265625 4.638671875  26.5625 6.877604166666668  26.5625 9.5  C 26.5625 12.122395833333332  25.64697265625 14.361328125  23.81591796875 16.216796875  Z M 40.625 13.458333333333332  L 40.625 22.166666666666664  L 49.21875 22.166666666666664  C 49.43033854166667 22.166666666666664  49.61344401041667 22.24500868055555  49.76806640625 22.401692708333336  C 49.922688802083336 22.55837673611111  50 22.74392361111111  50 22.958333333333336  L 50 27.708333333333336  C 50 27.92274305555555  49.922688802083336 28.10828993055555  49.76806640625 28.264973958333336  C 49.61344401041667 28.42165798611111  49.43033854166667 28.5  49.21875 28.5  L 40.625 28.5  L 40.625 37.20833333333333  C 40.625 37.42274305555556  40.547688802083336 37.60828993055556  40.39306640625 37.76497395833333  C 40.23844401041667 37.92165798611111  40.05533854166667 38  39.84375 38  L 35.15625 38  C 34.944661458333336 38  34.761555989583336 37.92165798611111  34.60693359375 37.76497395833333  C 34.45231119791667 37.60828993055556  34.375 37.42274305555556  34.375 37.20833333333333  L 34.375 28.5  L 25.78125 28.5  C 25.569661458333336 28.5  25.386555989583336 28.42165798611111  25.23193359375 28.264973958333336  C 25.077311197916668 28.10828993055555  25 27.92274305555555  25 27.708333333333336  L 25 22.958333333333336  C 25 22.74392361111111  25.077311197916668 22.55837673611111  25.23193359375 22.401692708333336  C 25.386555989583336 22.24500868055555  25.569661458333336 22.166666666666664  25.78125 22.166666666666664  L 34.375 22.166666666666664  L 34.375 13.458333333333332  C 34.375 13.243923611111107  34.45231119791667 13.058376736111107  34.60693359375 12.901692708333332  C 34.761555989583336 12.745008680555555  34.944661458333336 12.666666666666668  35.15625 12.666666666666668  L 39.84375 12.666666666666668  C 40.05533854166667 12.666666666666668  40.23844401041667 12.745008680555555  40.39306640625 12.901692708333332  C 40.547688802083336 13.058376736111107  40.625 13.243923611111107  40.625 13.458333333333332  Z M 22.65625 22.958333333333336  L 22.65625 27.708333333333336  C 22.65625 28.565972222222225  22.965494791666668 29.308159722222225  23.583984375 29.934895833333332  C 24.202473958333336 30.561631944444443  24.934895833333336 30.875  25.78125 30.875  L 32.03125 30.875  L 32.03125 36.76302083333333  C 30.924479166666668 37.58767361111111  29.532877604166668 38  27.8564453125 38  L 6.5185546875 38  C 4.549153645833334 38  2.970377604166667 37.43098958333333  1.7822265625 36.29296875  C 0.5940755208333333 35.15494791666667  0 33.58810763888889  0 31.592447916666668  C 0 30.718315972222225  0.028483072916666664 29.864800347222225  0.08544921875 29.031901041666668  C 0.14241536458333334 28.19900173611111  0.25634765625 27.300130208333336  0.42724609375 26.335286458333336  C 0.59814453125 25.370442708333336  0.8138020833333334 24.47569444444444  1.07421875 23.651041666666664  C 1.3346354166666667 22.82638888888889  1.6845703125 22.02235243055555  2.1240234375 21.238932291666664  C 2.5634765625000004 20.455512152777775  3.068033854166667 19.787543402777775  3.6376953125 19.235026041666664  C 4.207356770833334 18.682508680555557  4.903157552083334 18.241319444444443  5.72509765625 17.911458333333332  C 6.547037760416667 17.58159722222222  7.454427083333334 17.416666666666668  8.447265625 17.416666666666668  C 8.756510416666668 17.416666666666668  9.073893229166668 17.55685763888889  9.3994140625 17.837239583333332  C 10.685221354166668 18.84331597222222  11.942545572916668 19.59787326388889  13.17138671875 20.100911458333336  C 14.400227864583334 20.603949652777775  15.738932291666668 20.85546875  17.1875 20.85546875  C 18.636067708333336 20.85546875  19.974772135416668 20.603949652777775  21.20361328125 20.100911458333336  C 22.432454427083336 19.59787326388889  23.689778645833336 18.84331597222222  24.9755859375 17.837239583333332  C 25.301106770833336 17.55685763888889  25.618489583333336 17.416666666666668  25.927734375 17.416666666666668  C 28.076171875 17.416666666666668  29.842122395833336 18.208333333333332  31.2255859375 19.791666666666664  L 25.78125 19.791666666666664  C 24.934895833333336 19.791666666666664  24.202473958333336 20.105034722222225  23.583984375 20.731770833333336  C 22.965494791666668 21.35850694444444  22.65625 22.10069444444444  22.65625 22.958333333333336  Z " fill-rule="nonzero" fill="#000000" stroke="none" transform="matrix(1 0 0 1 1388 14 )" />
  </g>
</svg>