<?xml version="1.0" encoding="utf-8"?>
<svg version="1.1" xmlns:xlink="http://www.w3.org/1999/xlink" width="39px" height="40px" xmlns="http://www.w3.org/2000/svg">
  <g transform="matrix(1 0 0 1 -1234 -14 )">
    <path d="M 11.926339285714223 1.5848214285714306  C 14.334821428571333 0.5282738095238102  16.859375 0  19.5 0  C 22.140625 0  24.66517857142867 0.5282738095238102  27.07366071428578 1.5848214285714306  C 29.48214285714289 2.641369047619044  31.55691964285711 4.0625  33.29799107142867 5.848214285714285  C 35.0390625 7.633928571428569  36.42466517857133 9.76190476190476  37.45479910714289 12.232142857142854  C 38.48493303571422 14.702380952380949  39 17.291666666666657  39 20  C 39 22.69345238095238  38.48856026785711 25.27529761904762  37.46568080357133 27.745535714285708  C 36.44280133928578 30.21577380952381  35.06082589285711 32.34375  33.31975446428578 34.12946428571429  C 31.57868303571422 35.91517857142857  29.50390625 37.34002976190476  27.09542410714289 38.40401785714286  C 24.68694196428578 39.46800595238096  22.15513392857133 40  19.5 40  C 16.84486607142867 40  14.31305803571422 39.47172619047619  11.90457589285711 38.41517857142857  C 9.49609375 37.35863095238096  7.424944196428669 35.93377976190476  5.691127232142889 34.140625  C 3.95731026785711 32.34747023809524  2.575334821428669 30.21949404761905  1.5452008928571104 27.75669642857143  C 0.5150669642857792 25.293898809523796  0 22.70833333333333  0 20  C 0 17.291666666666657  0.5150669642857792 14.702380952380949  1.5452008928571104 12.232142857142854  C 2.575334821428669 9.76190476190476  3.9609375 7.633928571428569  5.702008928571331 5.848214285714285  C 7.443080357142889 4.0625  9.51785714285711 2.641369047619044  11.926339285714223 1.5848214285714306  Z M 26.31194196428578 22.85714285714286  C 29.79408482142867 22.85714285714286  32.01395089285711 25.29017857142857  32.97154017857133 30.15625  C 35.13337053571422 27.10565476190476  36.21428571428578 23.720238095238102  36.21428571428578 20  C 36.21428571428578 17.67857142857143  35.77176339285711 15.461309523809518  34.88671875 13.348214285714285  C 34.00167410714289 11.235119047619051  32.81194196428578 9.41220238095238  31.31752232142867 7.879464285714285  C 29.82310267857133 6.34672619047619  28.04575892857133 5.126488095238095  25.98549107142867 4.21875  C 23.92522321428578 3.311011904761905  21.76339285714289 2.857142857142854  19.5 2.857142857142854  C 17.23660714285711 2.857142857142854  15.07477678571422 3.311011904761905  13.014508928571331 4.21875  C 10.954241071428667 5.126488095238095  9.176897321428669 6.34672619047619  7.682477678571331 7.879464285714285  C 6.188058035714221 9.41220238095238  4.99832589285711 11.235119047619051  4.11328125 13.348214285714285  C 3.2282366071428896 15.461309523809518  2.7857142857142208 17.67857142857143  2.7857142857142208 20  C 2.7857142857142208 23.720238095238102  3.8666294642857792 27.10565476190476  6.028459821428669 30.15625  C 6.986049107142889 25.29017857142857  9.205915178571331 22.85714285714286  12.688058035714223 22.85714285714286  C 14.588727678571331 24.76190476190476  16.859375 25.714285714285708  19.5 25.714285714285708  C 22.140625 25.714285714285708  24.41127232142867 24.76190476190476  26.31194196428578 22.85714285714286  Z M 25.40876116071422 21.77455357142857  C 27.041015625 20.10044642857143  27.85714285714289 18.08035714285714  27.85714285714289 15.714285714285722  C 27.85714285714289 13.348214285714285  27.041015625 11.328125  25.40876116071422 9.654017857142854  C 23.77650669642867 7.979910714285715  21.80691964285711 7.142857142857146  19.5 7.142857142857146  C 17.19308035714289 7.142857142857146  15.223493303571331 7.979910714285715  13.591238839285777 9.654017857142854  C 11.958984375 11.328125  11.14285714285711 13.348214285714285  11.14285714285711 15.714285714285722  C 11.14285714285711 18.08035714285714  11.958984375 20.10044642857143  13.591238839285777 21.77455357142857  C 14.746041151021018 22.95896619884938  16.069692216262183 23.7243992890347  17.562192035009275 24.07085284198451  C 18.179264969398446 24.214093804471034  18.82520095772884 24.285714285714292  19.5 24.285714285714292  C 21.80691964285711 24.285714285714292  23.77650669642867 23.448660714285708  25.40876116071422 21.77455357142857  Z " fill-rule="nonzero" fill="#000000" stroke="none" transform="matrix(1 0 0 1 1234 14 )" />
  </g>
</svg>