<?xml version="1.0" encoding="utf-8"?>
<svg version="1.1" xmlns:xlink="http://www.w3.org/1999/xlink" width="31px" height="32px" xmlns="http://www.w3.org/2000/svg">
  <g transform="matrix(1 0 0 1 -213 -751 )">
    <path d="M 30.933948863636374 24.795454545454504  C 30.97798295454544 24.90151515151524  31 25.060606060606005  31 25.272727272727252  C 31 25.681818181818244  30.926609848484844 26.215909090909236  30.77982954545456 26.875  C 30.63304924242425 27.534090909090764  30.478929924242436 28.053030303030255  30.317471590909093 28.431818181818244  C 30.00923295454544 29.189393939393995  29.113873106060623 29.99242424242425  27.63139204545456 30.840909090909236  C 26.25165719696969 31.61363636363626  24.886600378787875 32  23.536221590909093 32  C 23.13991477272728 32  22.750946969696997 31.97348484848476  22.369318181818187 31.920454545454504  C 21.987689393939377 31.86742424242425  21.56569602272728 31.772727272727252  21.103338068181813 31.63636363636374  C 20.640980113636374 31.5  20.296046401515156 31.390151515151274  20.068536931818187 31.306818181818244  C 19.841027462121218 31.22348484848476  19.433712121212125 31.068181818181756  18.846590909090907 30.840909090909236  C 18.259469696969717 30.61363636363626  17.89985795454544 30.477272727272748  17.767755681818187 30.431818181818244  C 16.329308712121218 29.90151515151524  15.044981060606062 29.272727272727252  13.91477272727272 28.545454545454504  C 12.050662878787875 27.34848484848476  10.113162878787875 25.71212121212102  8.10227272727272 23.63636363636374  C 6.091382575757564 21.560606060606005  4.506155303030312 19.560606060606005  3.346590909090935 17.63636363636374  C 2.642045454545439 16.46969696969677  2.0329071969696884 15.14393939393949  1.5191761363636402 13.659090909090764  C 1.4751420454545467 13.522727272727252  1.3430397727272805 13.151515151515241  1.122869318181813 12.545454545454504  C 0.9026988636363598 11.939393939393995  0.7522490530302974 11.51893939393949  0.6715198863636402 11.284090909090764  C 0.5907907196969688 11.049242424242493  0.484375 10.693181818181756  0.3522727272727195 10.215909090909236  C 0.22017045454546746 9.73863636363626  0.12843276515150137 9.303030303030255  0.07705965909090651 8.909090909090764  C 0.025686553030297432 8.515151515151274  0 8.11363636363626  0 7.704545454545496  C 0 6.3106060606060055  0.3742897727272805 4.901515151515241  1.122869318181813 3.477272727272748  C 1.94483901515153 1.9469696969697452  2.722774621212153 1.022727272727252  3.456676136363626 0.7045454545454959  C 3.823626893939405 0.5378787878789808  4.326349431818187 0.37878787878798903  4.96484375 0.22727272727274794  C 5.603338068181813 0.07575757575750686  6.120738636363626 0  6.517045454545439 0  C 6.722537878787875 0  6.876657196969717 0.022727272727252057  6.9794034090909065 0.06818181818175617  C 7.243607954545439 0.1590909090907644  7.632575757575779 0.734848484848726  8.146306818181813 1.7954545454545041  C 8.307765151515156 2.083333333333485  8.527935606060595 2.4924242424242493  8.806818181818187 3.022727272727252  C 9.085700757575779 3.553030303030255  9.342566287878782 4.034090909090764  9.57741477272728 4.465909090909236  C 9.812263257575779 4.897727272727252  10.03977272727272 5.303030303030255  10.259943181818187 5.681818181818244  C 10.30397727272728 5.742424242424249  10.432410037878782 5.931818181818244  10.64524147727272 6.25  C 10.858072916666657 6.568181818181756  11.015861742424221 6.837121212121019  11.118607954545439 7.056818181818244  C 11.221354166666657 7.276515151515241  11.27272727272728 7.492424242424249  11.27272727272728 7.704545454545496  C 11.27272727272728 8.00757575757575  11.063565340909065 8.38636363636374  10.64524147727272 8.840909090909236  C 10.226917613636374 9.295454545454504  9.771898674242436 9.71212121212102  9.280184659090935 10.090909090909236  C 8.788470643939405 10.46969696969677  8.333451704545439 10.871212121212011  7.915127840909065 11.295454545454504  C 7.4968039772727195 11.71969696969677  7.287642045454561 12.068181818181756  7.287642045454561 12.340909090909236  C 7.287642045454561 12.477272727272748  7.324337121212125 12.647727272727252  7.3977272727272805 12.852272727272748  C 7.471117424242436 13.056818181818244  7.533499053030312 13.21212121212102  7.5848721590909065 13.318181818181756  C 7.63624526515153 13.424242424242493  7.7389914772727195 13.60606060606051  7.893110795454562 13.86363636363626  C 8.047230113636374 14.121212121212011  8.131628787878782 14.265151515151274  8.146306818181813 14.295454545454504  C 9.261837121212125 16.37121212121201  10.538825757575779 18.15151515151524  11.97727272727272 19.63636363636374  C 13.415719696969688 21.12121212121201  15.140388257575779 22.439393939393995  17.151278409090907 23.590909090909236  C 17.180634469696997 23.60606060606051  17.32007575757578 23.693181818181756  17.56960227272728 23.852272727272748  C 17.819128787878782 24.01136363636374  17.995265151515156 24.11742424242425  18.098011363636374 24.170454545454504  C 18.200757575757564 24.22348484848476  18.351207386363626 24.28787878787898  18.54936079545456 24.36363636363626  C 18.74751420454544 24.439393939393995  18.91264204545456 24.477272727272748  19.044744318181813 24.477272727272748  C 19.308948863636374 24.477272727272748  19.646543560606062 24.26136363636374  20.057528409090907 23.829545454545496  C 20.46851325757578 23.397727272727252  20.857481060606062 22.928030303030255  21.224431818181813 22.420454545454504  C 21.591382575757564 21.91287878787898  21.995028409090907 21.443181818181756  22.435369318181813 21.01136363636374  C 22.87571022727272 20.579545454545496  23.24266098484847 20.36363636363626  23.536221590909093 20.36363636363626  C 23.74171401515153 20.36363636363626  23.95087594696969 20.416666666666515  24.163707386363626 20.522727272727252  C 24.376538825757564 20.62878787878799  24.637073863636374 20.791666666666515  24.9453125 21.01136363636374  C 25.253551136363626 21.23106060606051  25.43702651515153 21.36363636363626  25.495738636363626 21.409090909090764  C 25.862689393939377 21.63636363636374  26.25532670454544 21.87121212121201  26.673650568181813 22.11363636363626  C 27.091974431818187 22.35606060606051  27.558001893939377 22.62121212121201  28.07173295454544 22.909090909090764  C 28.58546401515153 23.196969696969745  28.981770833333343 23.424242424242493  29.260653409090907 23.590909090909236  C 30.288115530303003 24.12121212121201  30.845880681818187 24.522727272727252  30.933948863636374 24.795454545454504  Z " fill-rule="nonzero" fill="#000000" stroke="none" transform="matrix(1 0 0 1 213 751 )" />
  </g>
</svg>